{"asset":{"version":"2.0","generator":"babylon.js glTF exporter for 3dsmax 2019 v20210811.2"},"scene":0,"scenes":[{"nodes":[0,1]}],"nodes":[{"skin":0,"mesh":0,"translation":[-0.000525873271,0.0,9.303598E-05],"rotation":[-0.4999997,-0.4999997,0.499999821,0.5000008],"name":"Skin_Mesh"},{"children":[2],"translation":[0.0,0.0006201172,0.0],"rotation":[-0.00390687073,0.6903016,-0.0012209675,0.7235102],"scale":[0.99999994,1.0,0.99999994],"name":"Root"},{"children":[3,25,29],"translation":[-8.24249557E-11,9.30354145E-05,-0.000525873154],"rotation":[-0.506187558,-0.49373427,0.5061882,0.493734866],"scale":[1.0,0.9999999,0.9999999],"name":" Pelvis"},{"children":[4,24],"translation":[-0.00016072765,0.000103481107,0.0012801711],"rotation":[0.0185556151,-0.006592169,-0.000244188035,0.9998061],"scale":[0.9999999,0.999999762,1.0],"name":" Spine"},{"children":[5,22,23],"translation":[0.006903565,3.89385241E-06,3.88368062E-06],"rotation":[0.0229537543,0.0735009,-0.00390699366,0.9970233],"scale":[1.0,0.999999762,0.9999999],"name":" Spine1"},{"children":[6,10,16],"translation":[0.00690408144,3.89125034E-06,8.66740947E-07],"rotation":[2.22029461E-09,0.08692466,-1.86972149E-09,0.9962149],"scale":[1.00000036,1.00000024,1.00000024],"name":" Neck"},{"children":[7,8,9],"translation":[0.00318016252,3.027916E-09,-7.56979E-10],"rotation":[-0.0163604878,-0.08741853,0.00244205445,0.9960343],"scale":[0.999999762,0.999999762,0.9999999],"name":" Head"},{"translation":[0.000315121259,-1.05749486E-05,-0.000441992655],"rotation":[-4.236716E-06,0.8230149,-6.642819E-06,0.568019867],"scale":[1.00000012,0.999999762,1.00000012],"name":"Jaw"},{"translation":[0.002146064,0.0006044946,0.0004039077],"rotation":[0.04541333,0.577113152,0.06397061,0.8128874],"scale":[1.00000048,1.00000036,1.00000036],"name":"L Brow"},{"translation":[0.002133106,-0.0005112742,0.0004108278],"rotation":[-0.0353471823,0.5778167,-0.0497843,0.8138796],"scale":[1.00000024,0.99999994,1.00000012],"name":"R Brow"},{"children":[11],"translation":[-9.38653955E-08,0.000808509,-2.08282768E-06],"rotation":[-0.6404409,-0.762278557,-0.08228278,-0.0446818732],"scale":[0.999999642,0.999999642,1.0],"name":"Bip01 L Clavicle"},{"children":[12],"translation":[0.00441535842,0.0,0.0],"rotation":[0.112086393,-0.139924884,-0.5096388,0.8415023],"scale":[1.0000006,1.00000048,1.00000012],"name":" L UpperArm"},{"children":[13],"translation":[0.0066622356,0.0,7.56979E-10],"rotation":[-5.678378E-09,-0.177767769,1.13567546E-08,0.9840725],"scale":[0.9999996,0.9999999,0.99999994],"name":" L ForeArm"},{"children":[14],"translation":[0.007263398,1.513958E-09,-1.70320269E-09],"rotation":[-0.771822,0.07276281,0.0302773211,0.6309356],"scale":[0.9999996,1.0,0.99999994],"name":" L Hand"},{"children":[15],"translation":[0.002244727,1.23009081E-09,3.027916E-09],"rotation":[-0.000244336377,0.169465348,-5.858943E-08,0.985536158],"scale":[0.99999994,0.99999994,0.9999999],"name":" L Finger"},{"translation":[0.00127382623,-1.65589154E-10,-1.513958E-09],"rotation":[-4.688379E-09,0.116217978,-2.81303034E-08,0.9932238],"scale":[1.00000012,0.9999999,1.00000012],"name":"L Finger01"},{"children":[17],"translation":[-9.23514349E-08,-0.0008085037,-2.08585561E-06],"rotation":[0.638967752,-0.7623342,0.07251349,-0.0728597641],"scale":[0.9999999,0.9999999,0.999999762],"name":"Bip01 R Clavicle"},{"children":[18],"translation":[0.00441536,-1.513958E-09,9.462238E-10],"rotation":[-0.004967918,-0.007171749,0.418665349,0.9080987],"scale":[1.00000012,1.00000024,1.00000012],"name":" R UpperArm"},{"children":[19],"translation":[0.00702455128,7.56979E-09,2.270937E-09],"rotation":[9.313227E-10,1.86264582E-09,7.450585E-09,1.0],"scale":[0.999999642,0.9999999,0.99999994],"name":" R ForeArm"},{"children":[20],"translation":[0.00726340245,3.027916E-09,1.89244745E-10],"rotation":[0.707405746,0.0470688455,-0.0113910744,0.7051468],"scale":[1.00000012,1.00000012,1.0],"name":" R Hand"},{"children":[21],"translation":[0.002244726,9.462237E-11,-7.56979E-10],"rotation":[0.000398185,-0.00603908161,-2.5704976E-06,0.9999817],"scale":[1.00000012,0.999999762,1.00000012],"name":" R Finger"},{"translation":[0.00127382379,1.89244745E-10,-7.56979E-10],"rotation":[5.58795765E-09,0.00267815078,7.450607E-09,0.9999964],"scale":[0.999999762,0.9999999,1.00000012],"name":"R Finger01"},{"translation":[0.00347818225,0.00256874925,0.00173790986],"rotation":[0.110469051,0.6455386,-0.07301908,0.75216],"scale":[1.0,1.00000024,1.00000012],"name":"L breast"},{"translation":[0.00354367285,-0.002527347,0.00173832686],"rotation":[-0.0513066463,0.670521,0.0225203615,0.739771664],"scale":[1.00000036,1.00000024,1.00000012],"name":"R breast"},{"translation":[0.004418997,-7.940804E-06,0.00177601876],"rotation":[-0.000223278927,0.6955176,0.000176576359,0.7185091],"scale":[0.99999994,0.999999642,0.99999994],"name":"Belly"},{"children":[26],"translation":[-4.73111862E-11,0.00260121282,3.34504868E-10],"rotation":[-0.128932312,-0.0434660427,0.988726139,0.06251248],"scale":[1.00000024,0.99999994,1.00000012],"name":" L Thigh"},{"children":[27],"translation":[0.0115725119,-9.462238E-10,1.32471323E-09],"rotation":[1.19082821E-09,-0.210462764,5.715964E-09,0.9776019],"scale":[0.999999642,0.9999997,0.99999994],"name":" L Calf"},{"children":[28],"translation":[0.0104562882,7.56979E-10,-1.89244753E-09],"rotation":[-0.008789722,0.08154934,0.0434604436,0.9956825],"scale":[1.0,1.0,0.999999762],"name":" L Foot"},{"translation":[0.00299862842,-3.784895E-10,-0.00283143437],"rotation":[-8.058892E-09,0.7071068,-4.984824E-09,0.7071067],"scale":[1.0,1.00000012,0.9999999],"name":" L Toe0"},{"children":[30],"translation":[6.150454E-10,-0.00260121259,-1.448905E-10],"rotation":[-0.08253893,0.0219780151,0.9963268,-0.0061049154],"scale":[0.9999998,0.999999762,0.9999998],"name":" R Thigh"},{"children":[31],"translation":[0.0116122449,-1.89244745E-10,-2.3655593E-09],"rotation":[4.848984E-09,-0.1763061,-1.60844351E-08,0.9843354],"scale":[1.00000036,1.00000024,1.00000036],"name":" R Calf"},{"children":[32],"translation":[0.0104560321,0.0,1.513958E-09],"rotation":[0.0371130258,0.0969333649,-0.03467134,0.993994236],"scale":[1.0,0.999999762,0.999999762],"name":" R Foot"},{"translation":[0.00294215768,3.784895E-10,-0.00288415584],"rotation":[-1.73738428E-07,0.7071068,1.64663732E-07,0.7071067],"scale":[0.9999999,0.99999994,0.999999762],"name":" R Toe0"}],"meshes":[{"primitives":[{"attributes":{"POSITION":1,"NORMAL":2,"TEXCOORD_0":3,"JOINTS_0":4,"WEIGHTS_0":5},"indices":0}],"name":"Skin_Mesh"}],"accessors":[{"bufferView":0,"componentType":5123,"count":4632,"type":"SCALAR","name":"accessorIndices"},{"bufferView":1,"componentType":5126,"count":1166,"max":[0.0222034156,0.0075983596,0.009577043],"min":[-0.023980163,-0.004365026,-0.0146591747],"type":"VEC3","name":"accessorPositions"},{"bufferView":1,"byteOffset":13992,"componentType":5126,"count":1166,"type":"VEC3","name":"accessorNormals"},{"bufferView":2,"componentType":5126,"count":1166,"type":"VEC2","name":"accessorUVs"},{"bufferView":3,"componentType":5123,"count":1166,"type":"VEC4","name":"accessorJoints"},{"bufferView":4,"componentType":5126,"count":1166,"type":"VEC4","name":"accessorWeights"},{"bufferView":5,"componentType":5126,"count":32,"type":"MAT4","name":"accessorInverseBindMatrices"},{"bufferView":6,"componentType":5126,"count":25,"max":[0.8333333],"min":[0.0],"type":"SCALAR","name":"accessorAnimationInput"},{"bufferView":7,"componentType":5126,"count":25,"type":"VEC3","name":"accessorAnimationPositions"},{"bufferView":6,"byteOffset":100,"componentType":5126,"count":26,"max":[0.8333333],"min":[0.0],"type":"SCALAR","name":"accessorAnimationInput"},{"bufferView":8,"componentType":5126,"count":26,"type":"VEC4","name":"accessorAnimationRotations"},{"bufferView":6,"byteOffset":204,"componentType":5126,"count":25,"max":[0.8333333],"min":[0.0],"type":"SCALAR","name":"accessorAnimationInput"},{"bufferView":8,"byteOffset":416,"componentType":5126,"count":25,"type":"VEC4","name":"accessorAnimationRotations"},{"bufferView":6,"byteOffset":304,"componentType":5126,"count":26,"max":[0.8333333],"min":[0.0],"type":"SCALAR","name":"accessorAnimationInput"},{"bufferView":8,"byteOffset":816,"componentType":5126,"count":26,"type":"VEC4","name":"accessorAnimationRotations"},{"bufferView":6,"byteOffset":408,"componentType":5126,"count":26,"max":[0.8333333],"min":[0.0],"type":"SCALAR","name":"accessorAnimationInput"},{"bufferView":8,"byteOffset":1232,"componentType":5126,"count":26,"type":"VEC4","name":"accessorAnimationRotations"},{"bufferView":6,"byteOffset":512,"componentType":5126,"count":26,"max":[0.8333333],"min":[0.0],"type":"SCALAR","name":"accessorAnimationInput"},{"bufferView":8,"byteOffset":1648,"componentType":5126,"count":26,"type":"VEC4","name":"accessorAnimationRotations"},{"bufferView":6,"byteOffset":616,"componentType":5126,"count":26,"max":[0.8333333],"min":[0.0],"type":"SCALAR","name":"accessorAnimationInput"},{"bufferView":8,"byteOffset":2064,"componentType":5126,"count":26,"type":"VEC4","name":"accessorAnimationRotations"},{"bufferView":6,"byteOffset":720,"componentType":5126,"count":26,"max":[0.8333333],"min":[0.0],"type":"SCALAR","name":"accessorAnimationInput"},{"bufferView":8,"byteOffset":2480,"componentType":5126,"count":26,"type":"VEC4","name":"accessorAnimationRotations"},{"bufferView":6,"byteOffset":824,"componentType":5126,"count":26,"max":[0.8333333],"min":[0.0],"type":"SCALAR","name":"accessorAnimationInput"},{"bufferView":8,"byteOffset":2896,"componentType":5126,"count":26,"type":"VEC4","name":"accessorAnimationRotations"},{"bufferView":6,"byteOffset":928,"componentType":5126,"count":26,"max":[0.8333333],"min":[0.0],"type":"SCALAR","name":"accessorAnimationInput"},{"bufferView":8,"byteOffset":3312,"componentType":5126,"count":26,"type":"VEC4","name":"accessorAnimationRotations"},{"bufferView":6,"byteOffset":1032,"componentType":5126,"count":26,"max":[0.8333333],"min":[0.0],"type":"SCALAR","name":"accessorAnimationInput"},{"bufferView":8,"byteOffset":3728,"componentType":5126,"count":26,"type":"VEC4","name":"accessorAnimationRotations"},{"bufferView":6,"byteOffset":1136,"componentType":5126,"count":26,"max":[0.8333333],"min":[0.0],"type":"SCALAR","name":"accessorAnimationInput"},{"bufferView":8,"byteOffset":4144,"componentType":5126,"count":26,"type":"VEC4","name":"accessorAnimationRotations"},{"bufferView":6,"byteOffset":1240,"componentType":5126,"count":26,"max":[0.8333333],"min":[0.0],"type":"SCALAR","name":"accessorAnimationInput"},{"bufferView":8,"byteOffset":4560,"componentType":5126,"count":26,"type":"VEC4","name":"accessorAnimationRotations"},{"bufferView":6,"byteOffset":1344,"componentType":5126,"count":26,"max":[0.8333333],"min":[0.0],"type":"SCALAR","name":"accessorAnimationInput"},{"bufferView":8,"byteOffset":4976,"componentType":5126,"count":26,"type":"VEC4","name":"accessorAnimationRotations"},{"bufferView":6,"byteOffset":1448,"componentType":5126,"count":26,"max":[0.8333333],"min":[0.0],"type":"SCALAR","name":"accessorAnimationInput"},{"bufferView":8,"byteOffset":5392,"componentType":5126,"count":26,"type":"VEC4","name":"accessorAnimationRotations"},{"bufferView":6,"byteOffset":1552,"componentType":5126,"count":26,"max":[0.8333333],"min":[0.0],"type":"SCALAR","name":"accessorAnimationInput"},{"bufferView":8,"byteOffset":5808,"componentType":5126,"count":26,"type":"VEC4","name":"accessorAnimationRotations"},{"bufferView":6,"byteOffset":1656,"componentType":5126,"count":26,"max":[0.8333333],"min":[0.0],"type":"SCALAR","name":"accessorAnimationInput"},{"bufferView":8,"byteOffset":6224,"componentType":5126,"count":26,"type":"VEC4","name":"accessorAnimationRotations"},{"bufferView":6,"byteOffset":1760,"componentType":5126,"count":26,"max":[0.8333333],"min":[0.0],"type":"SCALAR","name":"accessorAnimationInput"},{"bufferView":8,"byteOffset":6640,"componentType":5126,"count":26,"type":"VEC4","name":"accessorAnimationRotations"}],"bufferViews":[{"buffer":0,"byteLength":9264,"name":"bufferViewScalar"},{"buffer":0,"byteOffset":9264,"byteLength":27984,"byteStride":12,"name":"bufferViewFloatVec3"},{"buffer":0,"byteOffset":37248,"byteLength":9328,"byteStride":8,"name":"bufferViewFloatVec2"},{"buffer":0,"byteOffset":46576,"byteLength":9328,"byteStride":8,"name":"bufferViewUnsignedShortVec4"},{"buffer":0,"byteOffset":55904,"byteLength":18656,"byteStride":16,"name":"bufferViewFloatVec4"},{"buffer":0,"byteOffset":74560,"byteLength":2048,"name":"bufferViewFloatMat4"},{"buffer":0,"byteOffset":76608,"byteLength":1864,"name":"bufferViewAnimationFloatScalar"},{"buffer":0,"byteOffset":78472,"byteLength":300,"name":"bufferViewAnimationFloatVec3"},{"buffer":0,"byteOffset":78772,"byteLength":7056,"name":"bufferViewAnimationFloatVec4"}],"buffers":[{"uri":"DAM_LegL_frmFT.bin","byteLength":85828}],"animations":[{"channels":[{"sampler":0,"target":{"node":1,"path":"translation"}},{"sampler":1,"target":{"node":1,"path":"rotation"}},{"sampler":2,"target":{"node":2,"path":"rotation"}},{"sampler":3,"target":{"node":3,"path":"rotation"}},{"sampler":4,"target":{"node":4,"path":"rotation"}},{"sampler":5,"target":{"node":5,"path":"rotation"}},{"sampler":6,"target":{"node":6,"path":"rotation"}},{"sampler":7,"target":{"node":10,"path":"rotation"}},{"sampler":8,"target":{"node":11,"path":"rotation"}},{"sampler":9,"target":{"node":12,"path":"rotation"}},{"sampler":10,"target":{"node":13,"path":"rotation"}},{"sampler":11,"target":{"node":25,"path":"rotation"}},{"sampler":12,"target":{"node":26,"path":"rotation"}},{"sampler":13,"target":{"node":27,"path":"rotation"}},{"sampler":14,"target":{"node":28,"path":"rotation"}},{"sampler":15,"target":{"node":29,"path":"rotation"}},{"sampler":16,"target":{"node":30,"path":"rotation"}},{"sampler":17,"target":{"node":31,"path":"rotation"}}],"samplers":[{"input":7,"output":8},{"input":9,"output":10},{"input":11,"output":12},{"input":13,"output":14},{"input":15,"output":16},{"input":17,"output":18},{"input":19,"output":20},{"input":21,"output":22},{"input":23,"output":24},{"input":25,"output":26},{"input":27,"output":28},{"input":29,"output":30},{"input":31,"output":32},{"input":33,"output":34},{"input":35,"output":36},{"input":37,"output":38},{"input":39,"output":40},{"input":41,"output":42}],"name":"All Animations"}],"skins":[{"inverseBindMatrices":6,"skeleton":1,"joints":[1,2,3,4,5,6,7,8,9,10,11,12,13,14,15,16,17,18,19,20,21,22,23,24,25,26,27,28,29,30,31,32],"name":"skeleton #0"}]}