{"asset":{"version":"2.0","generator":"babylon.js glTF exporter for 3dsmax 2019 v20210811.2"},"scene":0,"scenes":[{"nodes":[0,1]}],"nodes":[{"skin":0,"mesh":0,"translation":[-0.0005260103,0.0,9.305311E-05],"rotation":[-0.4999997,-0.4999997,0.499999821,0.5000008],"name":"Skin_Mesh"},{"children":[2],"translation":[-0.0006190639,-0.000526010233,9.305275E-05],"rotation":[-0.5000002,-0.500000358,0.5000011,-0.49999854],"name":"Root"},{"children":[3,25,29],"translation":[-9.462237E-11,9.30524E-05,-0.0005260104],"rotation":[0.499999255,0.49999997,-0.49999997,0.500000834],"name":" Pelvis"},{"children":[4,24],"translation":[-0.00016072765,0.000134191054,0.00128017168],"rotation":[3.68766559E-05,0.000281323562,-0.000281344343,0.99999994],"scale":[0.99999994,1.0,1.00000012],"name":" Spine"},{"children":[5,22,23],"translation":[0.00690356037,3.893897E-06,4.97694737E-06],"rotation":[0.0227104854,0.0212452747,-0.00512815872,0.9995032],"scale":[1.0,0.9999999,0.9999999],"name":" Spine1"},{"children":[6,10,16],"translation":[0.008276121,4.66601841E-06,4.34127458E-07],"rotation":[-2.77537771E-10,0.08692464,-2.33715158E-09,0.9962149],"scale":[1.00000036,1.00000012,1.0],"name":" Neck"},{"children":[7,8,9],"translation":[0.00303857867,1.513958E-09,-1.1354685E-09],"rotation":[-0.0163610317,-0.03516407,0.00341883232,0.9992418],"scale":[0.9999997,0.99999994,1.00000024],"name":" Head"},{"translation":[-0.000127001389,-1.05628851E-05,-0.0005816354],"rotation":[1.11328507E-06,0.8230149,1.35234586E-06,0.568019867],"scale":[0.99999994,1.0,0.99999994],"name":"Jaw"},{"translation":[0.00205544173,0.000607907132,4.715752E-05],"rotation":[0.0370129235,0.6858977,0.07112633,0.7232672],"scale":[1.00000024,0.99999994,1.00000024],"name":"L Brow"},{"translation":[0.00204253057,-0.0005139448,5.395746E-05],"rotation":[-0.0287944842,0.6867721,-0.0553398021,0.7241909],"scale":[1.0,1.0,1.00000012],"name":"R Brow"},{"children":[11],"translation":[-1.332283E-07,0.00117020344,-1.76830292E-06],"rotation":[-0.640440643,-0.7622787,-0.0822830349,-0.0446821675],"scale":[0.99999994,0.9999995,0.99999994],"name":"Bip01 L Clavicle"},{"children":[12],"translation":[0.00421887776,-4.541874E-09,1.32471323E-09],"rotation":[0.151390731,-0.105729476,-0.514239669,0.837531865],"scale":[1.00000012,1.00000012,1.00000036],"name":" L UpperArm"},{"children":[13],"translation":[0.008908699,4.541874E-09,-3.40640538E-09],"rotation":[8.044372E-08,-0.177768,2.27135253E-08,0.984072447],"scale":[0.999999762,0.9999999,0.99999994],"name":" L ForeArm"},{"children":[14],"translation":[0.007983461,2.270937E-09,1.513958E-09],"rotation":[-0.7718218,0.07276254,0.0302770864,0.6309358],"scale":[1.00000024,1.00000012,1.00000012],"name":" L Hand"},{"children":[15],"translation":[0.00186690467,9.462237E-11,7.56979E-10],"rotation":[-0.000244047231,0.1694653,3.212784E-08,0.985536158],"scale":[0.9999996,0.999999642,0.9999998],"name":" L Finger"},{"translation":[0.00118906482,3.784895E-10,-3.784895E-09],"rotation":[1.1720954E-08,0.116217867,-3.00056335E-08,0.9932238],"scale":[1.0000006,1.00000036,1.00000012],"name":"L Finger01"},{"children":[17],"translation":[-1.34742265E-07,-0.00117020018,-1.77776508E-06],"rotation":[0.6465891,-0.757202446,0.0800911039,-0.04639402],"scale":[0.9999998,0.9999996,0.999999642],"name":"Bip01 R Clavicle"},{"children":[18],"translation":[0.00421887962,-4.541874E-09,-1.89244745E-10],"rotation":[-0.1379756,-0.08107595,0.5616707,0.8117361],"scale":[1.00000036,1.00000024,1.00000036],"name":" R UpperArm"},{"children":[19],"translation":[0.008908702,3.027916E-09,2.64942646E-09],"rotation":[-7.02337877E-09,-0.104506768,-7.491601E-09,0.99452424],"scale":[1.0,1.00000012,0.9999999],"name":" R ForeArm"},{"children":[20],"translation":[0.007983457,7.56979E-10,2.64942646E-09],"rotation":[0.836067736,0.037114948,-0.0134297749,0.5472046],"scale":[0.999999762,1.0,0.9999998],"name":" R Hand"},{"children":[21],"translation":[0.00186690793,-8.042902E-10,0.0],"rotation":[0.0002440672,0.169465289,5.292133E-08,0.985536158],"scale":[1.0,1.00000012,1.00000036],"name":" R Finger"},{"translation":[0.001189065,-2.83867124E-10,4.541874E-09],"rotation":[9.376766E-10,0.116217889,-1.87535321E-09,0.9932238],"scale":[0.9999999,0.99999994,0.99999994],"name":"R Finger01"},{"translation":[0.00347818667,0.00256874878,0.00173790939],"rotation":[0.110469051,0.6455387,-0.07301908,0.75216],"scale":[0.999999762,1.00000012,0.99999994],"name":"L breast"},{"translation":[0.00354367751,-0.00252734567,0.00173832616],"rotation":[-0.0513066463,0.670521,0.0225203689,0.739771664],"name":"R breast"},{"translation":[0.004418997,-7.941091E-06,0.00177601841],"rotation":[-0.000223255367,0.6955176,0.00017659484,0.7185091],"scale":[0.99999994,0.9999996,0.9999998],"name":"Belly"},{"children":[26],"translation":[3.31178474E-10,0.003373188,3.784895E-10],"rotation":[-0.006149397,0.0007001406,0.9999101,0.0118926819],"scale":[0.9999998,0.9999999,1.00000012],"name":" L Thigh"},{"children":[27],"translation":[0.011612243,-3.027916E-09,3.40640538E-09],"rotation":[3.60905E-08,-0.06728213,-7.327487E-08,0.997734],"scale":[1.0,0.9999999,1.0],"name":" L Calf"},{"children":[28],"translation":[0.009877162,4.541874E-09,-9.462237E-11],"rotation":[0.00010222289,0.0611413531,0.0119135641,0.998058],"scale":[1.00000012,1.00000024,1.0],"name":" L Foot"},{"translation":[0.00369601487,-7.948279E-09,-0.002831435],"rotation":[-4.25436575E-08,0.7071063,-6.94915343E-08,0.707107365],"name":" L Toe0"},{"children":[30],"translation":[-9.462239E-11,-0.00337318913,-3.311783E-10],"rotation":[-0.007889941,-0.000231015947,0.999963164,-0.00338623021],"scale":[0.99999994,0.99999994,0.99999994],"name":" R Thigh"},{"children":[31],"translation":[0.0116122449,7.56979E-10,2.69673772E-09],"rotation":[1.03643E-06,-0.07106033,4.78512163E-09,0.997472048],"scale":[1.0,1.00000012,0.9999999],"name":" R Calf"},{"children":[32],"translation":[0.009877157,1.1354685E-09,-6.623566E-10],"rotation":[-1.05736581E-05,0.0631885156,-0.00339340558,0.997995853],"scale":[1.00000012,1.0,1.00000024],"name":" R Foot"},{"translation":[0.003709406,-3.784895E-09,-0.002884155],"rotation":[-1.94065564E-08,0.7071063,-8.45615347E-08,0.707107365],"scale":[0.9999999,1.0,0.9999999],"name":" R Toe0"}],"meshes":[{"primitives":[{"attributes":{"POSITION":1,"NORMAL":2,"TEXCOORD_0":3,"JOINTS_0":4,"WEIGHTS_0":5},"indices":0}],"name":"Skin_Mesh"}],"accessors":[{"bufferView":0,"componentType":5123,"count":3147,"type":"SCALAR","name":"accessorIndices"},{"bufferView":1,"componentType":5126,"count":1014,"max":[0.024464095,0.0115487045,0.00544122374],"min":[-0.0251803938,-0.009554097,-0.005671326],"type":"VEC3","name":"accessorPositions"},{"bufferView":1,"byteOffset":12168,"componentType":5126,"count":1014,"type":"VEC3","name":"accessorNormals"},{"bufferView":2,"componentType":5126,"count":1014,"type":"VEC2","name":"accessorUVs"},{"bufferView":3,"componentType":5123,"count":1014,"type":"VEC4","name":"accessorJoints"},{"bufferView":4,"componentType":5126,"count":1014,"type":"VEC4","name":"accessorWeights"},{"bufferView":5,"componentType":5126,"count":32,"type":"MAT4","name":"accessorInverseBindMatrices"},{"bufferView":6,"componentType":5126,"count":71,"max":[2.33333325],"min":[0.0],"type":"SCALAR","name":"accessorAnimationInput"},{"bufferView":7,"componentType":5126,"count":71,"type":"VEC4","name":"accessorAnimationRotations"},{"bufferView":6,"byteOffset":284,"componentType":5126,"count":43,"max":[2.33333325],"min":[0.0],"type":"SCALAR","name":"accessorAnimationInput"},{"bufferView":7,"byteOffset":1136,"componentType":5126,"count":43,"type":"VEC4","name":"accessorAnimationRotations"},{"bufferView":6,"byteOffset":456,"componentType":5126,"count":71,"max":[2.33333325],"min":[0.0],"type":"SCALAR","name":"accessorAnimationInput"},{"bufferView":7,"byteOffset":1824,"componentType":5126,"count":71,"type":"VEC4","name":"accessorAnimationRotations"},{"bufferView":6,"byteOffset":740,"componentType":5126,"count":49,"max":[2.33333325],"min":[0.0],"type":"SCALAR","name":"accessorAnimationInput"},{"bufferView":7,"byteOffset":2960,"componentType":5126,"count":49,"type":"VEC4","name":"accessorAnimationRotations"},{"bufferView":6,"byteOffset":936,"componentType":5126,"count":71,"max":[2.33333325],"min":[0.0],"type":"SCALAR","name":"accessorAnimationInput"},{"bufferView":7,"byteOffset":3744,"componentType":5126,"count":71,"type":"VEC4","name":"accessorAnimationRotations"},{"bufferView":6,"byteOffset":1220,"componentType":5126,"count":71,"max":[2.33333325],"min":[0.0],"type":"SCALAR","name":"accessorAnimationInput"},{"bufferView":7,"byteOffset":4880,"componentType":5126,"count":71,"type":"VEC4","name":"accessorAnimationRotations"},{"bufferView":6,"byteOffset":1504,"componentType":5126,"count":18,"max":[2.33333325],"min":[0.0],"type":"SCALAR","name":"accessorAnimationInput"},{"bufferView":7,"byteOffset":6016,"componentType":5126,"count":18,"type":"VEC4","name":"accessorAnimationRotations"},{"bufferView":6,"byteOffset":1576,"componentType":5126,"count":47,"max":[2.33333325],"min":[0.0],"type":"SCALAR","name":"accessorAnimationInput"},{"bufferView":7,"byteOffset":6304,"componentType":5126,"count":47,"type":"VEC4","name":"accessorAnimationRotations"},{"bufferView":6,"byteOffset":1764,"componentType":5126,"count":71,"max":[2.33333325],"min":[0.0],"type":"SCALAR","name":"accessorAnimationInput"},{"bufferView":7,"byteOffset":7056,"componentType":5126,"count":71,"type":"VEC4","name":"accessorAnimationRotations"},{"bufferView":6,"byteOffset":2048,"componentType":5126,"count":71,"max":[2.33333325],"min":[0.0],"type":"SCALAR","name":"accessorAnimationInput"},{"bufferView":7,"byteOffset":8192,"componentType":5126,"count":71,"type":"VEC4","name":"accessorAnimationRotations"},{"bufferView":6,"byteOffset":2332,"componentType":5126,"count":71,"max":[2.33333325],"min":[0.0],"type":"SCALAR","name":"accessorAnimationInput"},{"bufferView":7,"byteOffset":9328,"componentType":5126,"count":71,"type":"VEC4","name":"accessorAnimationRotations"}],"bufferViews":[{"buffer":0,"byteLength":6296,"name":"bufferViewScalar"},{"buffer":0,"byteOffset":6296,"byteLength":24336,"byteStride":12,"name":"bufferViewFloatVec3"},{"buffer":0,"byteOffset":30632,"byteLength":8112,"byteStride":8,"name":"bufferViewFloatVec2"},{"buffer":0,"byteOffset":38744,"byteLength":8112,"byteStride":8,"name":"bufferViewUnsignedShortVec4"},{"buffer":0,"byteOffset":46856,"byteLength":16224,"byteStride":16,"name":"bufferViewFloatVec4"},{"buffer":0,"byteOffset":63080,"byteLength":2048,"name":"bufferViewFloatMat4"},{"buffer":0,"byteOffset":65128,"byteLength":2616,"name":"bufferViewAnimationFloatScalar"},{"buffer":0,"byteOffset":67744,"byteLength":10464,"name":"bufferViewAnimationFloatVec4"}],"buffers":[{"uri":"endchat_03.bin","byteLength":78208}],"animations":[{"channels":[{"sampler":0,"target":{"node":4,"path":"rotation"}},{"sampler":1,"target":{"node":5,"path":"rotation"}},{"sampler":2,"target":{"node":6,"path":"rotation"}},{"sampler":3,"target":{"node":10,"path":"rotation"}},{"sampler":4,"target":{"node":11,"path":"rotation"}},{"sampler":5,"target":{"node":12,"path":"rotation"}},{"sampler":6,"target":{"node":13,"path":"rotation"}},{"sampler":7,"target":{"node":16,"path":"rotation"}},{"sampler":8,"target":{"node":17,"path":"rotation"}},{"sampler":9,"target":{"node":18,"path":"rotation"}},{"sampler":10,"target":{"node":19,"path":"rotation"}}],"samplers":[{"input":7,"output":8},{"input":9,"output":10},{"input":11,"output":12},{"input":13,"output":14},{"input":15,"output":16},{"input":17,"output":18},{"input":19,"output":20},{"input":21,"output":22},{"input":23,"output":24},{"input":25,"output":26},{"input":27,"output":28}],"name":"All Animations"}],"skins":[{"inverseBindMatrices":6,"skeleton":1,"joints":[1,2,3,4,5,6,7,8,9,10,11,12,13,14,15,16,17,18,19,20,21,22,23,24,25,26,27,28,29,30,31,32],"name":"skeleton #0"}]}