{"asset":{"version":"2.0","generator":"babylon.js glTF exporter for 3dsmax 2019 v20210811.2"},"scene":0,"scenes":[{"nodes":[0,1]}],"nodes":[{"skin":0,"mesh":0,"translation":[-0.0005260103,0.0,9.305311E-05],"rotation":[-0.4999997,-0.4999997,0.499999821,0.5000008],"name":"Skin_Mesh"},{"children":[2],"translation":[-0.0006190639,-0.000526010233,9.305275E-05],"rotation":[-0.5000002,-0.500000358,0.5000011,-0.49999854],"name":"Root"},{"children":[3,25,29],"translation":[-9.462237E-11,9.30524E-05,-0.0005260104],"rotation":[0.499999255,0.49999997,-0.49999997,0.500000834],"name":" Pelvis"},{"children":[4,24],"translation":[-0.00016072765,0.000134191054,0.00128017168],"rotation":[3.68766559E-05,0.000281323562,-0.000281344343,0.99999994],"scale":[0.99999994,1.0,1.00000012],"name":" Spine"},{"children":[5,22,23],"translation":[0.00690356037,3.893897E-06,4.976569E-06],"rotation":[1.76925185E-12,6.938894E-18,4.365575E-11,1.0],"scale":[1.0,0.9999998,0.9999998],"name":" Spine1"},{"children":[6,10,16],"translation":[0.008276123,4.6660125E-06,4.343167E-07],"rotation":[-6.80174853E-05,0.102819517,0.000276438659,0.9947001],"scale":[1.0000006,1.00000024,1.00000012],"name":" Neck"},{"children":[7,8,9],"translation":[0.00303857867,1.513958E-09,-1.1354685E-09],"rotation":[9.91831E-10,-0.06203695,-3.82660764E-10,0.9980739],"scale":[0.9999997,1.0,1.00000024],"name":" Head"},{"translation":[-0.000126999876,-1.05628851E-05,-0.0005816354],"rotation":[1.09905739E-06,0.823014855,1.29788111E-06,0.568019867],"scale":[0.9999998,1.0,0.9999999],"name":"Jaw"},{"translation":[0.00205544173,0.000607907132,4.715752E-05],"rotation":[0.03701294,0.685897768,0.07112636,0.723267138],"scale":[1.0,0.99999994,1.00000024],"name":"L Brow"},{"translation":[0.0020425322,-0.0005139448,5.395746E-05],"rotation":[-0.02879448,0.686772168,-0.05533983,0.7241909],"scale":[0.9999998,0.9999999,0.9999999],"name":"R Brow"},{"children":[11],"translation":[-1.332283E-07,0.00117020321,-1.76830292E-06],"rotation":[-0.627321541,-0.771857262,-0.07182702,-0.07446428],"scale":[0.99999994,0.999999464,0.99999994],"name":"Bip01 L Clavicle"},{"children":[12],"translation":[0.004218877,1.513958E-09,9.462238E-10],"rotation":[0.0282012317,0.0348346531,-0.4770915,0.8777101],"scale":[1.00000012,1.0,1.00000024],"name":" L UpperArm"},{"children":[13],"translation":[0.008908698,7.56979E-10,-2.46018161E-09],"rotation":[9.359977E-10,-0.09982646,-7.487985E-09,0.9950049],"scale":[0.9999999,0.99999994,0.9999999],"name":" L ForeArm"},{"children":[14],"translation":[0.007983461,1.513958E-09,5.67734249E-10],"rotation":[-0.708581865,0.0234296825,-0.0121151647,0.705135465],"scale":[1.00000024,1.00000012,1.00000012],"name":" L Hand"},{"children":[15],"translation":[0.00186690514,0.0,1.513958E-09],"rotation":[-0.000382439,0.277921051,-0.000110703477,0.9606039],"scale":[0.9999995,0.999999642,0.99999994],"name":" L Finger"},{"translation":[0.0011890654,7.56979E-10,-1.513958E-09],"rotation":[2.38732367E-09,0.2209785,1.90985916E-09,0.9752787],"scale":[1.00000036,1.00000024,1.00000024],"name":"L Finger01"},{"children":[17],"translation":[-1.332283E-07,-0.00117020006,-1.77662969E-06],"rotation":[0.6273215,-0.7718574,0.07182449,-0.0744663253],"scale":[0.9999997,0.9999996,0.9999998],"name":"Bip01 R Clavicle"},{"children":[18],"translation":[0.00421887776,-6.055832E-09,-1.89244745E-10],"rotation":[-0.00559395365,-0.006695086,0.472335637,0.8813756],"scale":[1.00000024,1.00000036,1.00000024],"name":" R UpperArm"},{"children":[19],"translation":[0.008908702,3.027916E-09,1.513958E-09],"rotation":[-1.08521192E-09,3.31420438E-08,-2.98023224E-08,1.0],"scale":[0.99999994,1.0,1.0],"name":" R ForeArm"},{"children":[20],"translation":[0.007983457,1.513958E-09,1.513958E-09],"rotation":[0.708581746,0.0234297421,0.0121153686,0.7051356],"scale":[0.9999998,1.0,0.999999762],"name":" R Hand"},{"children":[21],"translation":[0.0018669077,-5.67734249E-10,0.0],"rotation":[0.0003904062,0.197450534,7.840065E-05,0.980312765],"scale":[1.00000012,1.00000012,1.00000036],"name":" R Finger"},{"translation":[0.00118906447,-3.784895E-10,4.541874E-09],"rotation":[-2.28984462E-07,0.278528154,6.64241355E-08,0.960428059],"scale":[0.9999999,0.99999994,1.0],"name":"R Finger01"},{"translation":[0.00347818737,0.00256874925,0.00173790881],"rotation":[0.110469043,0.6455386,-0.07301908,0.75216],"scale":[0.99999994,1.00000024,1.00000024],"name":"L breast"},{"translation":[0.003543679,-0.0025273466,0.00173832639],"rotation":[-0.0513066426,0.670521,0.0225203782,0.739771664],"scale":[1.00000024,1.00000024,1.00000024],"name":"R breast"},{"translation":[0.004418997,-7.941091E-06,0.00177601841],"rotation":[-0.000223255367,0.6955176,0.00017659484,0.7185091],"scale":[0.99999994,0.9999996,0.9999998],"name":"Belly"},{"children":[26],"translation":[3.31178474E-10,0.003373188,3.784895E-10],"rotation":[-0.006149397,0.0007001406,0.9999101,0.0118926819],"scale":[0.9999998,0.9999999,1.00000012],"name":" L Thigh"},{"children":[27],"translation":[0.011612243,-3.027916E-09,3.40640538E-09],"rotation":[3.60905E-08,-0.06728213,-7.327487E-08,0.997734],"scale":[1.0,0.9999999,1.0],"name":" L Calf"},{"children":[28],"translation":[0.009877162,4.541874E-09,-9.462237E-11],"rotation":[0.00010222289,0.0611413531,0.0119135641,0.998058],"scale":[1.00000012,1.00000024,1.0],"name":" L Foot"},{"translation":[0.00369601487,-7.948279E-09,-0.002831435],"rotation":[-4.25436575E-08,0.7071063,-6.94915343E-08,0.707107365],"name":" L Toe0"},{"children":[30],"translation":[-9.462239E-11,-0.00337318913,-3.311783E-10],"rotation":[-0.007889941,-0.000231015947,0.999963164,-0.00338623021],"scale":[0.99999994,0.99999994,0.99999994],"name":" R Thigh"},{"children":[31],"translation":[0.0116122449,7.56979E-10,2.69673772E-09],"rotation":[1.03643E-06,-0.07106033,4.78512163E-09,0.997472048],"scale":[1.0,1.00000012,0.9999999],"name":" R Calf"},{"children":[32],"translation":[0.009877157,1.1354685E-09,-6.623566E-10],"rotation":[-1.05736581E-05,0.0631885156,-0.00339340558,0.997995853],"scale":[1.00000012,1.0,1.00000024],"name":" R Foot"},{"translation":[0.003709406,-3.784895E-09,-0.002884155],"rotation":[-1.94065564E-08,0.7071063,-8.45615347E-08,0.707107365],"scale":[0.9999999,1.0,0.9999999],"name":" R Toe0"}],"meshes":[{"primitives":[{"attributes":{"POSITION":1,"NORMAL":2,"TEXCOORD_0":3,"JOINTS_0":4,"WEIGHTS_0":5},"indices":0,"material":0}],"name":"Skin_Mesh"}],"accessors":[{"bufferView":0,"componentType":5123,"count":3147,"type":"SCALAR","name":"accessorIndices"},{"bufferView":1,"componentType":5126,"count":1014,"max":[0.02451334,0.01312224,0.00590997934],"min":[-0.0251803938,-0.0126725044,-0.005671326],"type":"VEC3","name":"accessorPositions"},{"bufferView":1,"byteOffset":12168,"componentType":5126,"count":1014,"type":"VEC3","name":"accessorNormals"},{"bufferView":2,"componentType":5126,"count":1014,"type":"VEC2","name":"accessorUVs"},{"bufferView":3,"componentType":5123,"count":1014,"type":"VEC4","name":"accessorJoints"},{"bufferView":4,"componentType":5126,"count":1014,"type":"VEC4","name":"accessorWeights"},{"bufferView":5,"componentType":5126,"count":32,"type":"MAT4","name":"accessorInverseBindMatrices"}],"bufferViews":[{"buffer":0,"byteLength":6296,"name":"bufferViewScalar"},{"buffer":0,"byteOffset":6296,"byteLength":24336,"byteStride":12,"name":"bufferViewFloatVec3"},{"buffer":0,"byteOffset":30632,"byteLength":8112,"byteStride":8,"name":"bufferViewFloatVec2"},{"buffer":0,"byteOffset":38744,"byteLength":8112,"byteStride":8,"name":"bufferViewUnsignedShortVec4"},{"buffer":0,"byteOffset":46856,"byteLength":16224,"byteStride":16,"name":"bufferViewFloatVec4"},{"buffer":0,"byteOffset":63080,"byteLength":2048,"name":"bufferViewFloatMat4"}],"buffers":[{"uri":"Neutre.bin","byteLength":65128}],"materials":[{"pbrMetallicRoughness":{"baseColorTexture":{"index":0},"metallicFactor":0.0,"roughnessFactor":0.450053632},"name":"Material #25"}],"textures":[{"sampler":0,"source":0,"name":"lafd1.png"}],"images":[{"uri":"lafd1.png"}],"samplers":[{"magFilter":9729,"minFilter":9987}],"skins":[{"inverseBindMatrices":6,"skeleton":1,"joints":[1,2,3,4,5,6,7,8,9,10,11,12,13,14,15,16,17,18,19,20,21,22,23,24,25,26,27,28,29,30,31,32],"name":"skeleton #0"}]}