{"asset":{"version":"2.0","generator":"babylon.js glTF exporter for 3dsmax 2019 v20210811.2"},"scene":0,"scenes":[{"nodes":[0]}],"nodes":[{"children":[1,2],"scale":[50.0,50.0,50.0],"name":"root"},{"skin":0,"mesh":0,"name":"DFF"},{"children":[3],"translation":[0.0,0.0006201172,0.0],"rotation":[-0.00390687026,0.690301538,-0.00122096774,0.723510265],"scale":[0.99999994,1.0,0.99999994],"name":"Root"},{"children":[4,26,30],"translation":[5.58124158E-10,9.30521637E-05,-0.00052601035],"rotation":[-0.506187439,-0.49373433,0.506188154,0.493734956],"scale":[1.0,0.99999994,0.9999999],"name":" Pelvis"},{"children":[5,25],"translation":[-0.000160727781,0.0001341909,0.00128017191],"rotation":[0.0185556225,-0.006592169,-0.000244157331,0.9998061],"scale":[0.9999996,0.999999642,1.0],"name":" Spine"},{"children":[6,23,24],"translation":[0.00690356,3.89399429E-06,4.975907E-06],"rotation":[0.022953758,0.07350088,-0.003906961,0.997023344],"scale":[1.00000048,0.99999994,0.99999994],"name":" Spine1"},{"children":[7,11,17],"translation":[0.008276111,4.66573465E-06,4.339382E-07],"rotation":[-2.39558329E-09,0.08692464,-1.40229073E-09,0.9962149],"scale":[1.0000006,1.00000048,1.00000012],"name":" Neck"},{"children":[8,9,10],"translation":[0.0030385938,1.513958E-09,1.513958E-09],"rotation":[-0.0163604952,-0.08741869,0.002442053,0.9960343],"scale":[1.0,0.99999994,1.00000036],"name":" Head"},{"translation":[-0.0001270029,-1.05628851E-05,-0.0005816357],"rotation":[1.01204E-06,0.823014855,1.29528E-06,0.568019867],"scale":[1.00000012,0.99999994,0.999999762],"name":"Jaw"},{"translation":[0.00205544778,0.000607907132,4.71588428E-05],"rotation":[0.037013106,0.6858977,0.0711265057,0.7232672],"scale":[1.00000012,0.99999994,1.0],"name":"L Brow"},{"translation":[0.0020425322,-0.0005139447,5.39582179E-05],"rotation":[-0.028794501,0.686772168,-0.05533982,0.7241909],"scale":[0.9999999,0.9999998,0.9999997],"name":"R Brow"},{"children":[12],"translation":[-1.31714344E-07,0.00117020309,-1.76716742E-06],"rotation":[-0.6404409,-0.7622785,-0.08228307,-0.0446821451],"scale":[1.00000012,0.9999997,1.00000024],"name":"Bip01 L Clavicle"},{"children":[13],"translation":[0.00421887543,1.513958E-09,0.0],"rotation":[0.1120864,-0.139924929,-0.5096388,0.8415022],"scale":[1.00000048,1.00000024,1.00000048],"name":" L UpperArm"},{"children":[14],"translation":[0.008908698,1.513958E-09,-3.40640538E-09],"rotation":[-2.271352E-07,-0.177767918,-6.81405652E-08,0.984072447],"scale":[0.999999166,0.999999642,0.999999762],"name":" L ForeArm"},{"children":[15],"translation":[0.007983462,7.56979E-09,1.89244753E-09],"rotation":[-0.771822155,0.0727624148,0.03027706,0.6309355],"scale":[1.00000072,1.00000036,1.00000012],"name":" L Hand"},{"children":[16],"translation":[0.00186690339,-8.98912556E-10,-1.513958E-09],"rotation":[-0.000244085488,0.16946499,6.614567E-08,0.9855362],"scale":[0.999999642,0.9999998,1.0],"name":" L Finger"},{"translation":[0.0011890668,1.4666468E-09,-5.298853E-09],"rotation":[1.40182635E-07,0.116217889,2.23166978E-07,0.9932238],"scale":[1.00000036,1.0,1.0],"name":"L Finger01"},{"children":[18],"translation":[-1.31714344E-07,-0.00117020041,-1.77625122E-06],"rotation":[0.627321362,-0.77185744,0.07182467,-0.07446659],"scale":[0.9999994,0.9999994,0.999999464],"name":"Bip01 R Clavicle"},{"children":[19],"translation":[0.00421887543,-4.541874E-09,-7.56979E-10],"rotation":[-0.00559396576,-0.006695105,0.472335637,0.8813756],"scale":[1.0000006,1.00000048,1.00000048],"name":" R UpperArm"},{"children":[20],"translation":[0.008908701,0.0,-7.56979E-10],"rotation":[-9.313231E-09,-1.49011612E-08,-5.215407E-08,1.0],"scale":[1.0,0.999999642,1.0],"name":" R ForeArm"},{"children":[21],"translation":[0.00798346,7.56979E-10,0.0],"rotation":[0.7085817,0.0234299414,0.0121153016,0.705135643],"scale":[1.00000012,1.0,1.0],"name":" R Hand"},{"children":[22],"translation":[0.00186690886,-2.08169215E-09,7.56979E-10],"rotation":[0.000390359462,0.197450384,7.848165E-05,0.9803128],"scale":[1.0,0.99999994,1.00000048],"name":" R Finger"},{"translation":[0.00118906412,5.67734249E-10,3.784895E-09],"rotation":[-2.09939031E-07,0.278528184,6.59392754E-08,0.960428059],"scale":[0.9999998,1.00000012,0.99999994],"name":"R Finger01"},{"translation":[0.003478186,0.00256874831,0.001737909],"rotation":[0.110469125,0.6455386,-0.07301903,0.75216],"scale":[0.999999642,1.00000012,0.999999762],"name":"L breast"},{"translation":[0.00354367821,-0.0025273466,0.00173832651],"rotation":[-0.0513066575,0.670521,0.0225203559,0.739771664],"scale":[1.00000024,1.00000012,1.0],"name":"R breast"},{"translation":[0.004418997,-7.941136E-06,0.00177601865],"rotation":[-0.000223084149,0.6955176,0.0001764473,0.718508959],"scale":[0.999999762,0.999999762,1.00000012],"name":"Belly"},{"children":[27],"translation":[1.89244745E-10,0.00337318773,7.595663E-10],"rotation":[-0.128932282,-0.0434658341,0.988726139,0.06251266],"scale":[1.0,0.9999999,1.00000012],"name":" L Thigh"},{"children":[28],"translation":[0.0116122365,-9.083748E-09,4.541874E-09],"rotation":[2.88179773E-08,-0.210462764,-3.81064247E-09,0.9776019],"scale":[0.9999999,0.999999762,1.0],"name":" L Calf"},{"children":[29],"translation":[0.009877166,1.1354685E-09,1.513958E-09],"rotation":[-0.00878973,0.08154924,0.04346044,0.995682538],"scale":[0.99999994,1.00000012,0.999999464],"name":" L Foot"},{"translation":[0.00369601487,-6.81281076E-09,-0.0028314353],"rotation":[-5.04182163E-09,0.7071068,-1.60053915E-09,0.7071067],"scale":[1.00000012,0.9999999,0.99999994],"name":" L Toe0"},{"children":[31],"translation":[4.73111862E-11,-0.003373189,-8.168572E-10],"rotation":[-0.08253887,0.0219779443,0.9963268,-0.006104923],"scale":[1.00000012,1.0,0.9999999],"name":" R Thigh"},{"children":[32],"translation":[0.0116122421,7.56979E-10,1.70320269E-09],"rotation":[1.1826794E-09,-0.176306084,-1.60844387E-08,0.9843354],"scale":[0.99999994,1.0,1.0],"name":" R Calf"},{"children":[33],"translation":[0.009877157,1.70320269E-09,-1.1354685E-09],"rotation":[0.0371129364,0.0969333053,-0.03467137,0.993994236],"scale":[1.00000048,1.0,0.9999998],"name":" R Foot"},{"translation":[0.003709409,-3.40640538E-09,-0.00288415677],"rotation":[-2.45024379E-09,0.7071068,-9.050671E-08,0.7071067],"scale":[1.00000012,1.0,0.9999999],"name":" R Toe0"}],"meshes":[{"primitives":[{"attributes":{"POSITION":1,"NORMAL":2,"COLOR_0":3,"TEXCOORD_0":4,"JOINTS_0":5,"WEIGHTS_0":6},"indices":0,"material":0}],"name":"DFF"}],"accessors":[{"bufferView":0,"componentType":5123,"count":3147,"type":"SCALAR","name":"accessorIndices"},{"bufferView":1,"componentType":5126,"count":1014,"max":[0.0120904092,0.0250181146,0.005201737],"min":[-0.0121100293,-0.0241445545,-0.007290794],"type":"VEC3","name":"accessorPositions"},{"bufferView":1,"byteOffset":12168,"componentType":5126,"count":1014,"type":"VEC3","name":"accessorNormals"},{"bufferView":2,"componentType":5126,"count":1014,"type":"VEC4","name":"accessorColors"},{"bufferView":3,"componentType":5126,"count":1014,"type":"VEC2","name":"accessorUVs"},{"bufferView":4,"componentType":5123,"count":1014,"type":"VEC4","name":"accessorJoints"},{"bufferView":2,"byteOffset":16224,"componentType":5126,"count":1014,"type":"VEC4","name":"accessorWeights"},{"bufferView":5,"componentType":5126,"count":32,"type":"MAT4","name":"accessorInverseBindMatrices"},{"bufferView":6,"componentType":5126,"count":25,"max":[0.8333333],"min":[0.0],"type":"SCALAR","name":"accessorAnimationInput"},{"bufferView":7,"componentType":5126,"count":25,"type":"VEC3","name":"accessorAnimationPositions"},{"bufferView":6,"byteOffset":100,"componentType":5126,"count":26,"max":[0.8333333],"min":[0.0],"type":"SCALAR","name":"accessorAnimationInput"},{"bufferView":8,"componentType":5126,"count":26,"type":"VEC4","name":"accessorAnimationRotations"},{"bufferView":6,"byteOffset":204,"componentType":5126,"count":25,"max":[0.8333333],"min":[0.0],"type":"SCALAR","name":"accessorAnimationInput"},{"bufferView":8,"byteOffset":416,"componentType":5126,"count":25,"type":"VEC4","name":"accessorAnimationRotations"},{"bufferView":6,"byteOffset":304,"componentType":5126,"count":26,"max":[0.8333333],"min":[0.0],"type":"SCALAR","name":"accessorAnimationInput"},{"bufferView":8,"byteOffset":816,"componentType":5126,"count":26,"type":"VEC4","name":"accessorAnimationRotations"},{"bufferView":6,"byteOffset":408,"componentType":5126,"count":26,"max":[0.8333333],"min":[0.0],"type":"SCALAR","name":"accessorAnimationInput"},{"bufferView":8,"byteOffset":1232,"componentType":5126,"count":26,"type":"VEC4","name":"accessorAnimationRotations"},{"bufferView":6,"byteOffset":512,"componentType":5126,"count":26,"max":[0.8333333],"min":[0.0],"type":"SCALAR","name":"accessorAnimationInput"},{"bufferView":8,"byteOffset":1648,"componentType":5126,"count":26,"type":"VEC4","name":"accessorAnimationRotations"},{"bufferView":6,"byteOffset":616,"componentType":5126,"count":26,"max":[0.8333333],"min":[0.0],"type":"SCALAR","name":"accessorAnimationInput"},{"bufferView":8,"byteOffset":2064,"componentType":5126,"count":26,"type":"VEC4","name":"accessorAnimationRotations"},{"bufferView":6,"byteOffset":720,"componentType":5126,"count":26,"max":[0.8333333],"min":[0.0],"type":"SCALAR","name":"accessorAnimationInput"},{"bufferView":8,"byteOffset":2480,"componentType":5126,"count":26,"type":"VEC4","name":"accessorAnimationRotations"},{"bufferView":6,"byteOffset":824,"componentType":5126,"count":26,"max":[0.8333333],"min":[0.0],"type":"SCALAR","name":"accessorAnimationInput"},{"bufferView":8,"byteOffset":2896,"componentType":5126,"count":26,"type":"VEC4","name":"accessorAnimationRotations"},{"bufferView":6,"byteOffset":928,"componentType":5126,"count":26,"max":[0.8333333],"min":[0.0],"type":"SCALAR","name":"accessorAnimationInput"},{"bufferView":8,"byteOffset":3312,"componentType":5126,"count":26,"type":"VEC4","name":"accessorAnimationRotations"},{"bufferView":6,"byteOffset":1032,"componentType":5126,"count":26,"max":[0.8333333],"min":[0.0],"type":"SCALAR","name":"accessorAnimationInput"},{"bufferView":8,"byteOffset":3728,"componentType":5126,"count":26,"type":"VEC4","name":"accessorAnimationRotations"},{"bufferView":6,"byteOffset":1136,"componentType":5126,"count":26,"max":[0.8333333],"min":[0.0],"type":"SCALAR","name":"accessorAnimationInput"},{"bufferView":8,"byteOffset":4144,"componentType":5126,"count":26,"type":"VEC4","name":"accessorAnimationRotations"},{"bufferView":6,"byteOffset":1240,"componentType":5126,"count":26,"max":[0.8333333],"min":[0.0],"type":"SCALAR","name":"accessorAnimationInput"},{"bufferView":8,"byteOffset":4560,"componentType":5126,"count":26,"type":"VEC4","name":"accessorAnimationRotations"},{"bufferView":6,"byteOffset":1344,"componentType":5126,"count":26,"max":[0.8333333],"min":[0.0],"type":"SCALAR","name":"accessorAnimationInput"},{"bufferView":8,"byteOffset":4976,"componentType":5126,"count":26,"type":"VEC4","name":"accessorAnimationRotations"},{"bufferView":6,"byteOffset":1448,"componentType":5126,"count":26,"max":[0.8333333],"min":[0.0],"type":"SCALAR","name":"accessorAnimationInput"},{"bufferView":8,"byteOffset":5392,"componentType":5126,"count":26,"type":"VEC4","name":"accessorAnimationRotations"},{"bufferView":6,"byteOffset":1552,"componentType":5126,"count":26,"max":[0.8333333],"min":[0.0],"type":"SCALAR","name":"accessorAnimationInput"},{"bufferView":8,"byteOffset":5808,"componentType":5126,"count":26,"type":"VEC4","name":"accessorAnimationRotations"},{"bufferView":6,"byteOffset":1656,"componentType":5126,"count":26,"max":[0.8333333],"min":[0.0],"type":"SCALAR","name":"accessorAnimationInput"},{"bufferView":8,"byteOffset":6224,"componentType":5126,"count":26,"type":"VEC4","name":"accessorAnimationRotations"},{"bufferView":6,"byteOffset":1760,"componentType":5126,"count":26,"max":[0.8333333],"min":[0.0],"type":"SCALAR","name":"accessorAnimationInput"},{"bufferView":8,"byteOffset":6640,"componentType":5126,"count":26,"type":"VEC4","name":"accessorAnimationRotations"}],"bufferViews":[{"buffer":0,"byteLength":6296,"name":"bufferViewScalar"},{"buffer":0,"byteOffset":6296,"byteLength":24336,"byteStride":12,"name":"bufferViewFloatVec3"},{"buffer":0,"byteOffset":30632,"byteLength":32448,"byteStride":16,"name":"bufferViewFloatVec4"},{"buffer":0,"byteOffset":63080,"byteLength":8112,"byteStride":8,"name":"bufferViewFloatVec2"},{"buffer":0,"byteOffset":71192,"byteLength":8112,"byteStride":8,"name":"bufferViewUnsignedShortVec4"},{"buffer":0,"byteOffset":79304,"byteLength":2048,"name":"bufferViewFloatMat4"},{"buffer":0,"byteOffset":81352,"byteLength":1864,"name":"bufferViewAnimationFloatScalar"},{"buffer":0,"byteOffset":83216,"byteLength":300,"name":"bufferViewAnimationFloatVec3"},{"buffer":0,"byteOffset":83516,"byteLength":7056,"name":"bufferViewAnimationFloatVec4"}],"buffers":[{"uri":"test.bin","byteLength":90572}],"materials":[{"pbrMetallicRoughness":{"baseColorTexture":{"index":0},"metallicFactor":0.0,"roughnessFactor":0.450053632},"name":"Material #27"}],"textures":[{"sampler":0,"source":0,"name":"lafd1.png"}],"images":[{"uri":"lafd1.png"}],"samplers":[{"magFilter":9729,"minFilter":9987}],"animations":[{"channels":[{"sampler":0,"target":{"node":2,"path":"translation"}},{"sampler":1,"target":{"node":2,"path":"rotation"}},{"sampler":2,"target":{"node":3,"path":"rotation"}},{"sampler":3,"target":{"node":4,"path":"rotation"}},{"sampler":4,"target":{"node":5,"path":"rotation"}},{"sampler":5,"target":{"node":6,"path":"rotation"}},{"sampler":6,"target":{"node":7,"path":"rotation"}},{"sampler":7,"target":{"node":11,"path":"rotation"}},{"sampler":8,"target":{"node":12,"path":"rotation"}},{"sampler":9,"target":{"node":13,"path":"rotation"}},{"sampler":10,"target":{"node":14,"path":"rotation"}},{"sampler":11,"target":{"node":26,"path":"rotation"}},{"sampler":12,"target":{"node":27,"path":"rotation"}},{"sampler":13,"target":{"node":28,"path":"rotation"}},{"sampler":14,"target":{"node":29,"path":"rotation"}},{"sampler":15,"target":{"node":30,"path":"rotation"}},{"sampler":16,"target":{"node":31,"path":"rotation"}},{"sampler":17,"target":{"node":32,"path":"rotation"}}],"samplers":[{"input":8,"output":9},{"input":10,"output":11},{"input":12,"output":13},{"input":14,"output":15},{"input":16,"output":17},{"input":18,"output":19},{"input":20,"output":21},{"input":22,"output":23},{"input":24,"output":25},{"input":26,"output":27},{"input":28,"output":29},{"input":30,"output":31},{"input":32,"output":33},{"input":34,"output":35},{"input":36,"output":37},{"input":38,"output":39},{"input":40,"output":41},{"input":42,"output":43}],"name":"All Animations"}],"skins":[{"inverseBindMatrices":7,"skeleton":2,"joints":[2,3,4,5,6,7,8,9,10,11,12,13,14,15,16,17,18,19,20,21,22,23,24,25,26,27,28,29,30,31,32,33],"name":"skeleton #0"}]}